<?xml version="1.0" encoding="UTF-8" standalone="no"?>
<!DOCTYPE svg PUBLIC "-//W3C//DTD SVG 1.1//EN" "http://www.w3.org/Graphics/SVG/1.1/DTD/svg11.dtd">
<svg xmlns="http://www.w3.org/2000/svg" version="1.1" viewBox="0.00 0.00 200.00 200.00">
<path fill="#6a61fe" d="
  M 19.48 80.16
  C 19.39 62.52 19.49 47.19 19.36 31.42
  Q 19.29 22.16 20.25 18.64
  Q 23.74 5.86 39.31 5.86
  Q 125.26 5.85 126.50 5.86
  Q 134.84 5.90 139.52 6.98
  Q 142.14 7.59 144.21 10.77
  C 146.60 14.43 145.29 19.57 142.55 22.58
  Q 139.61 25.80 132.38 32.88
  Q 105.82 58.88 78.63 86.38
  C 73.20 91.87 67.07 97.25 58.79 98.06
  Q 50.69 98.86 38.50 98.62
  Q 34.37 98.54 32.01 98.30
  C 22.13 97.29 19.52 88.62 19.48 80.16
  Z"
/>
<path fill="#3994fd" d="
  M 179.41 130.39
  Q 179.37 130.38 174.05 126.72
  Q 163.95 119.79 151.73 120.37
  C 141.10 120.87 132.72 126.68 125.14 133.06
  A 2.01 1.86 17.4 0 1 124.28 133.47
  Q 121.34 134.07 119.42 132.22
  Q 106.03 119.24 102.34 115.03
  C 97.91 109.99 98.19 101.02 100.40 95.12
  Q 101.74 91.53 109.62 84.13
  Q 109.74 84.02 149.99 43.49
  C 156.20 37.24 165.67 34.64 173.59 38.90
  C 179.24 41.94 180.02 50.38 180.02 56.25
  Q 180.01 68.54 180.15 122.99
  Q 180.16 127.34 179.98 130.00
  A 0.44 0.44 0.0 0 1 179.41 130.39
  Z"
/>
<path fill="#34bcd0" d="
  M 19.61 123.55
  C 19.70 114.02 25.10 109.97 34.25 109.83
  Q 45.28 109.67 55.76 109.71
  Q 67.03 109.74 74.93 117.58
  Q 97.69 140.21 104.79 147.40
  C 111.72 154.43 111.20 164.98 110.96 175.28
  C 110.68 186.87 101.09 186.67 91.50 186.70
  Q 90.51 186.70 37.26 186.58
  C 26.13 186.55 19.51 177.90 19.48 167.23
  Q 19.42 145.40 19.61 123.55
  Z"
/>
<ellipse fill="#815efd" cx="0.00" cy="0.00" transform="translate(155.28,161.09) rotate(-91.4)" rx="25.57" ry="24.75"/>
</svg>
