<svg xmlns="http://www.w3.org/2000/svg" viewBox="0 0 800 200">
  <defs>
    <linearGradient id="gradient1" x1="0%" y1="0%" x2="100%" y2="100%">
      <stop offset="0%" style="stop-color:#7C3AED;stop-opacity:1" />
      <stop offset="50%" style="stop-color:#3B82F6;stop-opacity:1" />
      <stop offset="100%" style="stop-color:#06B6D4;stop-opacity:1" />
    </linearGradient>
  </defs>
  
  <!-- Logo Mark -->
  <g transform="translate(20, 20)">
    <!-- Main K shape -->
    <path d="M0 0 L40 0 Q60 0 60 20 L60 60 Q60 80 40 80 L20 80 L20 120 Q20 140 0 140 L0 120 L0 20 Q0 0 20 0 Z" fill="url(#gradient1)" rx="15"/>
    
    <!-- Top right section -->
    <path d="M80 0 L120 0 Q140 0 140 20 L140 40 Q140 60 120 60 L100 60 L100 40 Q100 20 80 20 Z" fill="url(#gradient1)" rx="10"/>
    
    <!-- Bottom section -->
    <path d="M20 100 L100 100 Q120 100 120 120 L120 140 Q120 160 100 160 L40 160 Q20 160 20 140 Z" fill="#06B6D4" rx="10"/>
    
    <!-- Small circle accent -->
    <circle cx="130" cy="130" r="15" fill="#7C3AED"/>
  </g>
  
  <!-- Text -->
  <text x="200" y="120" font-family="Inter, sans-serif" font-size="80" font-weight="800" fill="#1F2937">Krid.ai</text>
</svg>
