<?xml version="1.0" encoding="UTF-8" standalone="no"?>
<!DOCTYPE svg PUBLIC "-//W3C//DTD SVG 1.1//EN" "http://www.w3.org/Graphics/SVG/1.1/DTD/svg11.dtd">
<svg xmlns="http://www.w3.org/2000/svg" version="1.1" viewBox="0.00 0.00 1024.00 300.00" width="1024" height="300">
<g stroke-width="2.00" fill="none" stroke-linecap="butt">
<path stroke="#b5b0ff" vector-effect="non-scaling-stroke" d="
  M 35.69 21.55
  C 31.09 26.95 29.24 34.71 29.18 41.51
  Q 28.99 61.24 29.18 122.93
  C 29.22 136.34 32.95 150.71 49.02 151.56
  Q 69.47 152.65 87.08 151.10
  C 100.09 149.96 109.60 142.04 118.49 132.99
  Q 143.28 107.76 210.19 41.69
  Q 214.02 37.91 215.75 35.03
  C 221.27 25.89 216.85 15.15 205.93 13.82
  Q 197.69 12.81 189.00 12.79
  Q 171.77 12.74 59.25 12.76
  C 50.41 12.77 41.35 14.90 35.69 21.55"
/>
<path stroke="#808080" vector-effect="non-scaling-stroke" d="
  M 337.48 233.00
  A 0.32 0.32 0.0 0 0 337.80 232.68
  L 337.80 191.52
  A 0.32 0.32 0.0 0 1 338.35 191.30
  L 379.96 232.91
  A 0.32 0.32 0.0 0 0 380.18 233.00
  L 426.23 233.00
  A 0.32 0.32 0.0 0 0 426.45 232.45
  L 371.97 177.97
  A 0.32 0.32 0.0 0 1 371.97 177.51
  L 421.59 127.89
  A 0.32 0.32 0.0 0 0 421.37 127.34
  L 374.82 127.34
  A 0.32 0.32 0.0 0 0 374.60 127.43
  L 338.35 163.68
  A 0.32 0.32 0.0 0 1 337.80 163.46
  L 337.80 56.18
  A 0.32 0.32 0.0 0 0 337.48 55.86
  L 301.70 55.86
  A 0.32 0.32 0.0 0 0 301.38 56.18
  L 301.38 232.68
  A 0.32 0.32 0.0 0 0 301.70 233.00
  L 337.48 233.00"
/>
<path stroke="#808080" vector-effect="non-scaling-stroke" d="
  M 678.66 137.06
  Q 661.28 121.79 637.26 124.71
  Q 616.68 127.22 603.85 143.80
  Q 589.75 162.02 592.10 186.81
  Q 593.54 201.96 601.62 213.64
  C 613.00 230.09 630.25 237.77 650.05 235.72
  Q 667.01 233.96 678.68 221.19
  A 0.36 0.36 0.0 0 1 679.30 221.44
  L 679.30 232.41
  A 0.59 0.59 0.0 0 0 679.89 233.00
  L 715.03 233.00
  A 0.30 0.30 0.0 0 0 715.33 232.70
  L 715.33 56.19
  A 0.33 0.33 0.0 0 0 715.00 55.86
  L 679.24 55.86
  A 0.36 0.36 0.0 0 0 678.88 56.22
  L 678.88 136.96
  A 0.13 0.13 0.0 0 1 678.66 137.06"
/>
<path stroke="#9ccafe" vector-effect="non-scaling-stroke" d="
  M 269.74 199.24
  Q 270.23 195.21 270.21 190.00
  Q 270.13 171.20 270.02 89.00
  C 270.01 80.10 269.10 66.33 259.53 61.92
  C 248.72 56.94 234.89 59.66 226.77 67.58
  Q 219.22 74.96 158.72 135.97
  Q 153.86 140.86 151.85 144.32
  C 148.02 150.93 146.98 163.31 149.96 170.56
  C 151.94 175.37 155.33 178.60 159.44 182.80
  Q 172.68 196.30 179.49 202.42
  Q 182.37 205.01 186.46 204.12
  A 3.26 3.23 18.7 0 0 187.85 203.44
  Q 195.37 197.13 201.68 193.18
  Q 223.96 179.25 248.29 187.69
  C 255.88 190.32 262.24 194.62 269.10 199.51
  A 0.41 0.40 21.9 0 0 269.74 199.24"
/>
<path stroke="#808080" vector-effect="non-scaling-stroke" d="
  M 577.45 83.67
  A 21.60 21.60 0.0 0 0 555.85 62.07
  A 21.60 21.60 0.0 0 0 534.25 83.67
  A 21.60 21.60 0.0 0 0 555.85 105.27
  A 21.60 21.60 0.0 0 0 577.45 83.67"
/>
<path stroke="#808080" vector-effect="non-scaling-stroke" d="
  M 992.95 83.67
  A 21.60 21.60 0.0 0 0 971.35 62.07
  A 21.60 21.60 0.0 0 0 949.75 83.67
  A 21.60 21.60 0.0 0 0 971.35 105.27
  A 21.60 21.60 0.0 0 0 992.95 83.67"
/>
<path stroke="#808080" vector-effect="non-scaling-stroke" d="
  M 471.07 142.25
  L 471.07 127.95
  A 0.61 0.60 -90.0 0 0 470.47 127.34
  L 435.22 127.34
  A 0.61 0.60 90.0 0 0 434.62 127.95
  L 434.62 232.36
  A 0.64 0.63 -90.0 0 0 435.25 233.00
  L 470.69 233.00
  A 0.38 0.37 90.0 0 0 471.06 232.62
  Q 471.09 193.19 471.05 181.26
  C 471.03 175.01 471.96 171.75 474.23 166.75
  C 476.77 161.15 482.35 157.23 488.24 156.39
  Q 501.47 154.49 511.47 161.40
  A 0.26 0.26 0.0 0 0 511.85 161.30
  L 526.67 131.24
  A 0.50 0.49 -61.5 0 0 526.49 130.60
  C 512.66 122.19 495.44 121.89 482.13 131.65
  Q 476.16 136.02 471.47 142.38
  A 0.22 0.22 0.0 0 1 471.07 142.25"
/>
<path stroke="#808080" vector-effect="non-scaling-stroke" d="
  M 891.39 136.95
  A 0.18 0.17 20.6 0 1 891.10 137.08
  Q 875.93 123.56 854.95 124.27
  Q 833.47 125.00 819.47 140.12
  C 788.61 173.45 806.35 235.39 855.99 236.06
  Q 877.12 236.35 891.27 221.20
  A 0.30 0.30 0.0 0 1 891.79 221.40
  L 891.79 232.38
  A 0.62 0.61 -90.0 0 0 892.40 233.00
  L 927.49 233.00
  A 0.32 0.32 0.0 0 0 927.81 232.68
  L 927.81 127.66
  A 0.31 0.31 0.0 0 0 927.50 127.35
  L 891.75 127.35
  A 0.36 0.36 0.0 0 0 891.39 127.71
  L 891.39 136.95"
/>
<path stroke="#808080" vector-effect="non-scaling-stroke" d="
  M 573.56 127.79
  A 0.46 0.46 0.0 0 0 573.10 127.33
  L 537.60 127.33
  A 0.46 0.46 0.0 0 0 537.14 127.79
  L 537.14 232.53
  A 0.46 0.46 0.0 0 0 537.60 232.99
  L 573.10 232.99
  A 0.46 0.46 0.0 0 0 573.56 232.53
  L 573.56 127.79"
/>
<path stroke="#808080" vector-effect="non-scaling-stroke" d="
  M 989.06 127.74
  A 0.39 0.39 0.0 0 0 988.67 127.35
  L 953.01 127.35
  A 0.39 0.39 0.0 0 0 952.62 127.74
  L 952.62 232.60
  A 0.39 0.39 0.0 0 0 953.01 232.99
  L 988.67 232.99
  A 0.39 0.39 0.0 0 0 989.06 232.60
  L 989.06 127.74"
/>
<path stroke="#9adee8" vector-effect="non-scaling-stroke" d="
  M 162.22 278.47
  C 166.36 274.56 166.39 268.72 166.47 262.13
  C 166.63 250.18 166.78 235.42 158.32 226.18
  Q 156.30 223.98 119.71 187.44
  Q 109.05 176.80 103.82 173.89
  Q 93.82 168.34 81.52 168.47
  Q 60.77 168.70 54.63 168.67
  C 44.00 168.61 35.28 170.24 30.81 179.94
  Q 29.30 183.20 29.31 196.69
  Q 29.32 210.54 29.18 251.25
  C 29.14 260.80 30.59 269.67 37.48 276.47
  Q 44.73 283.62 55.24 283.71
  Q 101.09 284.08 135.28 283.94
  Q 145.94 283.90 149.49 283.53
  Q 157.75 282.69 162.22 278.47"
/>
<path stroke="#808080" vector-effect="non-scaling-stroke" d="
  M 787.29 212.51
  A 23.60 23.60 0.0 0 0 763.69 188.91
  A 23.60 23.60 0.0 0 0 740.09 212.51
  A 23.60 23.60 0.0 0 0 763.69 236.11
  A 23.60 23.60 0.0 0 0 787.29 212.51"
/>
<path stroke="#b5b0ff" vector-effect="non-scaling-stroke" d="
  M 230.9024 207.3026
  A 38.36 37.10 -93.0 0 0 195.8608 247.5517
  A 38.36 37.10 -93.0 0 0 234.9176 283.9174
  A 38.36 37.10 -93.0 0 0 269.9592 243.6683
  A 38.36 37.10 -93.0 0 0 230.9024 207.3026"
/>
<path stroke="#808080" vector-effect="non-scaling-stroke" d="
  M 680.00 180.24
  A 24.94 24.94 0.0 0 0 655.06 155.30
  A 24.94 24.94 0.0 0 0 630.12 180.24
  A 24.94 24.94 0.0 0 0 655.06 205.18
  A 24.94 24.94 0.0 0 0 680.00 180.24"
/>
<path stroke="#808080" vector-effect="non-scaling-stroke" d="
  M 892.50 180.24
  A 24.94 24.94 0.0 0 0 867.56 155.30
  A 24.94 24.94 0.0 0 0 842.62 180.24
  A 24.94 24.94 0.0 0 0 867.56 205.18
  A 24.94 24.94 0.0 0 0 892.50 180.24"
/>
</g>
<path fill="#ffffff" d="
  M 1024.00 0.00
  L 1024.00 300.00
  L 0.00 300.00
  L 0.00 0.00
  L 1024.00 0.00
  Z
  M 35.69 21.55
  C 31.09 26.95 29.24 34.71 29.18 41.51
  Q 28.99 61.24 29.18 122.93
  C 29.22 136.34 32.95 150.71 49.02 151.56
  Q 69.47 152.65 87.08 151.10
  C 100.09 149.96 109.60 142.04 118.49 132.99
  Q 143.28 107.76 210.19 41.69
  Q 214.02 37.91 215.75 35.03
  C 221.27 25.89 216.85 15.15 205.93 13.82
  Q 197.69 12.81 189.00 12.79
  Q 171.77 12.74 59.25 12.76
  C 50.41 12.77 41.35 14.90 35.69 21.55
  Z
  M 337.48 233.00
  A 0.32 0.32 0.0 0 0 337.80 232.68
  L 337.80 191.52
  A 0.32 0.32 0.0 0 1 338.35 191.30
  L 379.96 232.91
  A 0.32 0.32 0.0 0 0 380.18 233.00
  L 426.23 233.00
  A 0.32 0.32 0.0 0 0 426.45 232.45
  L 371.97 177.97
  A 0.32 0.32 0.0 0 1 371.97 177.51
  L 421.59 127.89
  A 0.32 0.32 0.0 0 0 421.37 127.34
  L 374.82 127.34
  A 0.32 0.32 0.0 0 0 374.60 127.43
  L 338.35 163.68
  A 0.32 0.32 0.0 0 1 337.80 163.46
  L 337.80 56.18
  A 0.32 0.32 0.0 0 0 337.48 55.86
  L 301.70 55.86
  A 0.32 0.32 0.0 0 0 301.38 56.18
  L 301.38 232.68
  A 0.32 0.32 0.0 0 0 301.70 233.00
  L 337.48 233.00
  Z
  M 678.66 137.06
  Q 661.28 121.79 637.26 124.71
  Q 616.68 127.22 603.85 143.80
  Q 589.75 162.02 592.10 186.81
  Q 593.54 201.96 601.62 213.64
  C 613.00 230.09 630.25 237.77 650.05 235.72
  Q 667.01 233.96 678.68 221.19
  A 0.36 0.36 0.0 0 1 679.30 221.44
  L 679.30 232.41
  A 0.59 0.59 0.0 0 0 679.89 233.00
  L 715.03 233.00
  A 0.30 0.30 0.0 0 0 715.33 232.70
  L 715.33 56.19
  A 0.33 0.33 0.0 0 0 715.00 55.86
  L 679.24 55.86
  A 0.36 0.36 0.0 0 0 678.88 56.22
  L 678.88 136.96
  A 0.13 0.13 0.0 0 1 678.66 137.06
  Z
  M 269.74 199.24
  Q 270.23 195.21 270.21 190.00
  Q 270.13 171.20 270.02 89.00
  C 270.01 80.10 269.10 66.33 259.53 61.92
  C 248.72 56.94 234.89 59.66 226.77 67.58
  Q 219.22 74.96 158.72 135.97
  Q 153.86 140.86 151.85 144.32
  C 148.02 150.93 146.98 163.31 149.96 170.56
  C 151.94 175.37 155.33 178.60 159.44 182.80
  Q 172.68 196.30 179.49 202.42
  Q 182.37 205.01 186.46 204.12
  A 3.26 3.23 18.7 0 0 187.85 203.44
  Q 195.37 197.13 201.68 193.18
  Q 223.96 179.25 248.29 187.69
  C 255.88 190.32 262.24 194.62 269.10 199.51
  A 0.41 0.40 21.9 0 0 269.74 199.24
  Z
  M 577.45 83.67
  A 21.60 21.60 0.0 0 0 555.85 62.07
  A 21.60 21.60 0.0 0 0 534.25 83.67
  A 21.60 21.60 0.0 0 0 555.85 105.27
  A 21.60 21.60 0.0 0 0 577.45 83.67
  Z
  M 992.95 83.67
  A 21.60 21.60 0.0 0 0 971.35 62.07
  A 21.60 21.60 0.0 0 0 949.75 83.67
  A 21.60 21.60 0.0 0 0 971.35 105.27
  A 21.60 21.60 0.0 0 0 992.95 83.67
  Z
  M 471.07 142.25
  L 471.07 127.95
  A 0.61 0.60 -90.0 0 0 470.47 127.34
  L 435.22 127.34
  A 0.61 0.60 90.0 0 0 434.62 127.95
  L 434.62 232.36
  A 0.64 0.63 -90.0 0 0 435.25 233.00
  L 470.69 233.00
  A 0.38 0.37 90.0 0 0 471.06 232.62
  Q 471.09 193.19 471.05 181.26
  C 471.03 175.01 471.96 171.75 474.23 166.75
  C 476.77 161.15 482.35 157.23 488.24 156.39
  Q 501.47 154.49 511.47 161.40
  A 0.26 0.26 0.0 0 0 511.85 161.30
  L 526.67 131.24
  A 0.50 0.49 -61.5 0 0 526.49 130.60
  C 512.66 122.19 495.44 121.89 482.13 131.65
  Q 476.16 136.02 471.47 142.38
  A 0.22 0.22 0.0 0 1 471.07 142.25
  Z
  M 891.39 136.95
  A 0.18 0.17 20.6 0 1 891.10 137.08
  Q 875.93 123.56 854.95 124.27
  Q 833.47 125.00 819.47 140.12
  C 788.61 173.45 806.35 235.39 855.99 236.06
  Q 877.12 236.35 891.27 221.20
  A 0.30 0.30 0.0 0 1 891.79 221.40
  L 891.79 232.38
  A 0.62 0.61 -90.0 0 0 892.40 233.00
  L 927.49 233.00
  A 0.32 0.32 0.0 0 0 927.81 232.68
  L 927.81 127.66
  A 0.31 0.31 0.0 0 0 927.50 127.35
  L 891.75 127.35
  A 0.36 0.36 0.0 0 0 891.39 127.71
  L 891.39 136.95
  Z
  M 573.56 127.79
  A 0.46 0.46 0.0 0 0 573.10 127.33
  L 537.60 127.33
  A 0.46 0.46 0.0 0 0 537.14 127.79
  L 537.14 232.53
  A 0.46 0.46 0.0 0 0 537.60 232.99
  L 573.10 232.99
  A 0.46 0.46 0.0 0 0 573.56 232.53
  L 573.56 127.79
  Z
  M 989.06 127.74
  A 0.39 0.39 0.0 0 0 988.67 127.35
  L 953.01 127.35
  A 0.39 0.39 0.0 0 0 952.62 127.74
  L 952.62 232.60
  A 0.39 0.39 0.0 0 0 953.01 232.99
  L 988.67 232.99
  A 0.39 0.39 0.0 0 0 989.06 232.60
  L 989.06 127.74
  Z
  M 162.22 278.47
  C 166.36 274.56 166.39 268.72 166.47 262.13
  C 166.63 250.18 166.78 235.42 158.32 226.18
  Q 156.30 223.98 119.71 187.44
  Q 109.05 176.80 103.82 173.89
  Q 93.82 168.34 81.52 168.47
  Q 60.77 168.70 54.63 168.67
  C 44.00 168.61 35.28 170.24 30.81 179.94
  Q 29.30 183.20 29.31 196.69
  Q 29.32 210.54 29.18 251.25
  C 29.14 260.80 30.59 269.67 37.48 276.47
  Q 44.73 283.62 55.24 283.71
  Q 101.09 284.08 135.28 283.94
  Q 145.94 283.90 149.49 283.53
  Q 157.75 282.69 162.22 278.47
  Z
  M 787.29 212.51
  A 23.60 23.60 0.0 0 0 763.69 188.91
  A 23.60 23.60 0.0 0 0 740.09 212.51
  A 23.60 23.60 0.0 0 0 763.69 236.11
  A 23.60 23.60 0.0 0 0 787.29 212.51
  Z
  M 230.9024 207.3026
  A 38.36 37.10 -93.0 0 0 195.8608 247.5517
  A 38.36 37.10 -93.0 0 0 234.9176 283.9174
  A 38.36 37.10 -93.0 0 0 269.9592 243.6683
  A 38.36 37.10 -93.0 0 0 230.9024 207.3026
  Z"
/>
<path fill="#6a61fe" d="
  M 35.69 21.55
  C 41.35 14.90 50.41 12.77 59.25 12.76
  Q 171.77 12.74 189.00 12.79
  Q 197.69 12.81 205.93 13.82
  C 216.85 15.15 221.27 25.89 215.75 35.03
  Q 214.02 37.91 210.19 41.69
  Q 143.28 107.76 118.49 132.99
  C 109.60 142.04 100.09 149.96 87.08 151.10
  Q 69.47 152.65 49.02 151.56
  C 32.95 150.71 29.22 136.34 29.18 122.93
  Q 28.99 61.24 29.18 41.51
  C 29.24 34.71 31.09 26.95 35.69 21.55
  Z"
/>
<path fill="#000000" d="
  M 337.48 233.00
  L 301.70 233.00
  A 0.32 0.32 0.0 0 1 301.38 232.68
  L 301.38 56.18
  A 0.32 0.32 0.0 0 1 301.70 55.86
  L 337.48 55.86
  A 0.32 0.32 0.0 0 1 337.80 56.18
  L 337.80 163.46
  A 0.32 0.32 0.0 0 0 338.35 163.68
  L 374.60 127.43
  A 0.32 0.32 0.0 0 1 374.82 127.34
  L 421.37 127.34
  A 0.32 0.32 0.0 0 1 421.59 127.89
  L 371.97 177.51
  A 0.32 0.32 0.0 0 0 371.97 177.97
  L 426.45 232.45
  A 0.32 0.32 0.0 0 1 426.23 233.00
  L 380.18 233.00
  A 0.32 0.32 0.0 0 1 379.96 232.91
  L 338.35 191.30
  A 0.32 0.32 0.0 0 0 337.80 191.52
  L 337.80 232.68
  A 0.32 0.32 0.0 0 1 337.48 233.00
  Z"
/>
<path fill="#000000" d="
  M 678.66 137.06
  A 0.13 0.13 0.0 0 0 678.88 136.96
  L 678.88 56.22
  A 0.36 0.36 0.0 0 1 679.24 55.86
  L 715.00 55.86
  A 0.33 0.33 0.0 0 1 715.33 56.19
  L 715.33 232.70
  A 0.30 0.30 0.0 0 1 715.03 233.00
  L 679.89 233.00
  A 0.59 0.59 0.0 0 1 679.30 232.41
  L 679.30 221.44
  A 0.36 0.36 0.0 0 0 678.68 221.19
  Q 667.01 233.96 650.05 235.72
  C 630.25 237.77 613.00 230.09 601.62 213.64
  Q 593.54 201.96 592.10 186.81
  Q 589.75 162.02 603.85 143.80
  Q 616.68 127.22 637.26 124.71
  Q 661.28 121.79 678.66 137.06
  Z
  M 680.00 180.24
  A 24.94 24.94 0.0 0 0 655.06 155.30
  A 24.94 24.94 0.0 0 0 630.12 180.24
  A 24.94 24.94 0.0 0 0 655.06 205.18
  A 24.94 24.94 0.0 0 0 680.00 180.24
  Z"
/>
<path fill="#3994fd" d="
  M 269.74 199.24
  A 0.41 0.40 21.9 0 1 269.10 199.51
  C 262.24 194.62 255.88 190.32 248.29 187.69
  Q 223.96 179.25 201.68 193.18
  Q 195.37 197.13 187.85 203.44
  A 3.26 3.23 18.7 0 1 186.46 204.12
  Q 182.37 205.01 179.49 202.42
  Q 172.68 196.30 159.44 182.80
  C 155.33 178.60 151.94 175.37 149.96 170.56
  C 146.98 163.31 148.02 150.93 151.85 144.32
  Q 153.86 140.86 158.72 135.97
  Q 219.22 74.96 226.77 67.58
  C 234.89 59.66 248.72 56.94 259.53 61.92
  C 269.10 66.33 270.01 80.10 270.02 89.00
  Q 270.13 171.20 270.21 190.00
  Q 270.23 195.21 269.74 199.24
  Z"
/>
<circle fill="#000000" cx="555.85" cy="83.67" r="21.60"/>
<circle fill="#000000" cx="971.35" cy="83.67" r="21.60"/>
<path fill="#000000" d="
  M 471.07 142.25
  A 0.22 0.22 0.0 0 0 471.47 142.38
  Q 476.16 136.02 482.13 131.65
  C 495.44 121.89 512.66 122.19 526.49 130.60
  A 0.50 0.49 -61.5 0 1 526.67 131.24
  L 511.85 161.30
  A 0.26 0.26 0.0 0 1 511.47 161.40
  Q 501.47 154.49 488.24 156.39
  C 482.35 157.23 476.77 161.15 474.23 166.75
  C 471.96 171.75 471.03 175.01 471.05 181.26
  Q 471.09 193.19 471.06 232.62
  A 0.38 0.37 -90.0 0 1 470.69 233.00
  L 435.25 233.00
  A 0.64 0.63 -90.0 0 1 434.62 232.36
  L 434.62 127.95
  A 0.61 0.60 -90.0 0 1 435.22 127.34
  L 470.47 127.34
  A 0.61 0.60 90.0 0 1 471.07 127.95
  L 471.07 142.25
  Z"
/>
<path fill="#000000" d="
  M 891.39 136.95
  L 891.39 127.71
  A 0.36 0.36 0.0 0 1 891.75 127.35
  L 927.50 127.35
  A 0.31 0.31 0.0 0 1 927.81 127.66
  L 927.81 232.68
  A 0.32 0.32 0.0 0 1 927.49 233.00
  L 892.40 233.00
  A 0.62 0.61 90.0 0 1 891.79 232.38
  L 891.79 221.40
  A 0.30 0.30 0.0 0 0 891.27 221.20
  Q 877.12 236.35 855.99 236.06
  C 806.35 235.39 788.61 173.45 819.47 140.12
  Q 833.47 125.00 854.95 124.27
  Q 875.93 123.56 891.10 137.08
  A 0.18 0.17 20.6 0 0 891.39 136.95
  Z
  M 892.50 180.24
  A 24.94 24.94 0.0 0 0 867.56 155.30
  A 24.94 24.94 0.0 0 0 842.62 180.24
  A 24.94 24.94 0.0 0 0 867.56 205.18
  A 24.94 24.94 0.0 0 0 892.50 180.24
  Z"
/>
<rect fill="#000000" x="537.14" y="127.33" width="36.42" height="105.66" rx="0.46"/>
<rect fill="#000000" x="952.62" y="127.35" width="36.44" height="105.64" rx="0.39"/>
<circle fill="#ffffff" cx="655.06" cy="180.24" r="24.94"/>
<circle fill="#ffffff" cx="867.56" cy="180.24" r="24.94"/>
<path fill="#34bcd0" d="
  M 162.22 278.47
  Q 157.75 282.69 149.49 283.53
  Q 145.94 283.90 135.28 283.94
  Q 101.09 284.08 55.24 283.71
  Q 44.73 283.62 37.48 276.47
  C 30.59 269.67 29.14 260.80 29.18 251.25
  Q 29.32 210.54 29.31 196.69
  Q 29.30 183.20 30.81 179.94
  C 35.28 170.24 44.00 168.61 54.63 168.67
  Q 60.77 168.70 81.52 168.47
  Q 93.82 168.34 103.82 173.89
  Q 109.05 176.80 119.71 187.44
  Q 156.30 223.98 158.32 226.18
  C 166.78 235.42 166.63 250.18 166.47 262.13
  C 166.39 268.72 166.36 274.56 162.22 278.47
  Z"
/>
<circle fill="#000000" cx="763.69" cy="212.51" r="23.60"/>
<ellipse fill="#6a61fe" cx="0.00" cy="0.00" transform="translate(232.91,245.61) rotate(-93.0)" rx="38.36" ry="37.10"/>
</svg>
